# xmcd
# Track frame offsets:
# 150
# 14025
# 30000
# 47062
# 67575
# 80512
# 94380
# 108039
# 123787
# 137588
# 149812
# 163162
# 176475
# 191924
# 209622
# 223162
# 238274
# 251812
# 270225
# 286370
# 301272
# 314862
# 328870
#
# Disc length: 4598 seconds
# Revision: 0
# Processed by: cddbd v1.4PL0 Copyright (c) Steve Scherf et al.
# Submitted via: VisiTrax 2.9.3.170 - For more info visit www.synapsa.com
#
DISCID=5e11f417
DTITLE=McClinton, Delbert - The Jealous Kind-Plain' From The Heart
DYEAR=1900
DGENRE=
TTITLE0=Shotgun Rider
TTITLE1=I Can't Quit You
TTITLE2=Giving It Up For Your Love
TTITLE3=The Jealous Kind
TTITLE4=Going Back To Louisana
TTITLE5=Baby Ruth
TTITLE6=Bright Side Of The Road
TTITLE7=Take Me To The River
TTITLE8=Shaky Ground
TTITLE9=My Sweet Baby
TTITLE10=Be Good To Yourself
TTITLE11=A Fool In Love
TTITLE12=Heartbreak Radio
TTITLE13=I've Got Dreams To Remember
TTITLE14=In The Midnight Hour
TTITLE15=I Wanna Thank You Baby
TTITLE16=Sandy Beaches
TTITLE17=Lipstick Traces (On A Cigarette)
TTITLE18=I Feel So Bad
TTITLE19=Rooster Blues
TTITLE20=As Long As I Got You
TTITLE21=Hold On To Your Hiney
TTITLE22=In The Jailhouse Now
EXTD=Double CD
EXTT0=
EXTT1=
EXTT2=
EXTT3=
EXTT4=
EXTT5=
EXTT6=
EXTT7=
EXTT8=
EXTT9=
EXTT10=
EXTT11=
EXTT12=
EXTT13=
EXTT14=
EXTT15=
EXTT16=
EXTT17=
EXTT18=
EXTT19=
EXTT20=
EXTT21=
EXTT22=
PLAYORDER=
